# xmcd
#
# Track frame offsets: 
#        150
#        18732
#        36706
#        59132
#        81343
#        98129
#        112036
#        129174
#        149273
#        165086
#        182904
#        202746
#        222918
#        230756
#        242375
#        260010
#
# Disc length: 3720 seconds
#
# Revision: 0
# Processed by: cddbd v1.5.1PL0 Copyright (c) Steve Scherf et al.
# Submitted via: ExactAudioCopy v0.90a11
#
DISCID=e80e8610
DTITLE=Exaltasamba-Ao Vivo 2002 - Exaltasamba-Ao Vivo 2002
DYEAR=1900
DGENRE=
TTITLE0=24 Horas de Amor
TTITLE1=Pra Não Pensar em Você
TTITLE2=Ela Entrou na Dança - Armadilha - Amor e Amizade
TTITLE3=Telegrama - Megastar
TTITLE4=Espere por Mim Morena
TTITLE5=Pago pra Ver
TTITLE6=Vem pra Ficar Comigo - Louca Paixão
TTITLE7=40 Graus de Amor
TTITLE8=Eu e Você Sempre
TTITLE9=Me Apaixonei Pela Pessoa Errada - é Você
TTITLE10=Luz do Desejo - Carona do Amor - Mais uma Vez
TTITLE11=Cartão Postal - Gamei
TTITLE12=Onde Mora o Pagode - Essa é a Hora
TTITLE13=Doidinho - Tá na Hora de Ir
TTITLE14=Como Nunca Amei Ninguém
TTITLE15=Desliga e Vem - Quem é Você
EXTD=
EXTT0=
EXTT1=
EXTT2=
EXTT3=
EXTT4=
EXTT5=
EXTT6=
EXTT7=
EXTT8=
EXTT9=
EXTT10=
EXTT11=
EXTT12=
EXTT13=
EXTT14=
EXTT15=
PLAYORDER=
